<?xml version="1.0" standalone="no"?>
<!DOCTYPE svg PUBLIC "-//W3C//DTD SVG 20010904//EN"
 "http://www.w3.org/TR/2001/REC-SVG-20010904/DTD/svg10.dtd">
<svg version="1.0" xmlns="http://www.w3.org/2000/svg"
 width="1900.000000pt" height="2669.000000pt" viewBox="0 0 1900.000000 2669.000000"
 preserveAspectRatio="xMidYMid meet">

<g transform="translate(0.000000,2669.000000) scale(0.100000,-0.100000)"
fill="#000000" stroke="none">
<path d="M11570 26651 c-1019 -129 -2078 -327 -4720 -886 -1217 -257 -3184
-708 -4232 -970 -995 -249 -1780 -478 -1994 -580 -127 -61 -210 -155 -307
-350 -116 -232 -177 -495 -197 -848 -47 -837 248 -2063 663 -2752 116 -193
189 -281 436 -525 290 -287 344 -351 438 -520 113 -204 245 -599 444 -1330
273 -1000 712 -2862 914 -3875 53 -266 108 -595 101 -602 -2 -3 -80 5 -172 17
-954 121 -1777 -153 -2225 -741 -519 -682 -498 -1596 53 -2254 212 -254 507
-482 772 -597 50 -22 93 -41 95 -43 6 -7 -37 -205 -74 -340 -67 -246 -184
-588 -415 -1215 -371 -1005 -380 -1035 -634 -2135 -254 -1097 -374 -1571 -458
-1801 -16 -46 -34 -87 -39 -90 -14 -8 -12 -1514 2 -1514 7 0 145 59 308 132
341 151 485 213 557 238 l52 18 6 -376 c17 -975 74 -1457 221 -1882 68 -196
203 -440 242 -440 10 0 46 13 80 29 156 74 259 173 362 348 168 282 257 373
492 501 42 23 89 42 106 42 92 0 318 -112 591 -293 457 -302 638 -397 974
-508 171 -57 636 -174 888 -223 628 -123 1680 -208 3215 -258 510 -17 2448
-17 2950 0 1577 52 2644 140 3440 283 714 128 1027 263 1575 675 182 138 437
315 470 327 21 8 46 1 143 -41 283 -122 352 -183 536 -470 35 -55 106 -147
158 -204 52 -56 114 -123 137 -148 27 -30 60 -53 96 -67 30 -11 78 -30 106
-41 l51 -21 26 127 c14 70 49 223 77 339 162 683 272 1369 300 1883 20 365 20
360 39 360 24 0 176 -53 457 -159 133 -49 260 -93 283 -97 l41 -7 0 1033 0
1033 -54 111 c-152 311 -256 681 -426 1511 -170 831 -266 1151 -619 2066 -210
546 -355 958 -376 1070 -6 34 -5 35 157 170 421 353 717 703 908 1072 160 310
223 549 223 842 0 166 -14 277 -54 425 -165 609 -717 1133 -1415 1345 -381
116 -630 109 -1066 -27 -363 -113 -570 -160 -633 -144 -38 10 -371 342 -507
506 -363 438 -542 749 -648 1126 -44 156 -80 346 -150 784 -70 439 -123 714
-244 1260 -230 1044 -471 1997 -721 2845 -178 608 -251 901 -306 1224 -83 495
-78 874 18 1161 36 107 68 166 181 336 160 240 211 361 232 555 19 168 2 357
-70 789 -130 779 -302 1365 -541 1841 -95 190 -241 419 -359 564 -90 110 -260
266 -371 342 l-101 68 -131 2 c-95 1 -195 -6 -357 -26z m235 -870 c112 -30
175 -63 239 -126 255 -251 470 -840 600 -1640 61 -378 58 -624 -12 -825 -11
-30 -76 -176 -146 -323 -189 -401 -201 -446 -201 -747 1 -220 21 -404 85 -785
81 -482 294 -1394 694 -2970 346 -1367 506 -2198 506 -2637 l0 -96 -32 -11
c-44 -13 -1047 -292 -1358 -376 -649 -176 -1443 -353 -1746 -390 l-32 -3 -100
301 c-100 302 -291 935 -376 1249 -106 389 -327 1290 -441 1798 -126 562 -349
1633 -385 1854 -31 188 -50 413 -50 595 0 281 24 478 107 881 80 393 102 509
122 675 65 509 15 1004 -169 1680 -91 333 -152 490 -324 831 -123 245 -163
338 -172 394 l-6 36 82 43 c396 207 1582 510 2330 595 74 9 153 18 175 20 22
2 150 3 285 1 214 -2 255 -5 325 -24z m-3641 -998 c124 -303 158 -396 215
-584 140 -466 194 -805 195 -1219 1 -412 -36 -640 -194 -1200 -131 -463 -145
-565 -116 -840 63 -594 267 -1616 717 -3580 355 -1549 517 -2326 536 -2562 l6
-76 -42 -21 c-255 -131 -1572 -474 -3591 -936 -1046 -239 -1729 -384 -1892
-401 l-64 -6 -36 78 c-53 116 -148 383 -216 605 -190 615 -350 1285 -632 2644
-221 1061 -319 1486 -501 2170 -159 594 -274 929 -373 1078 -57 86 -186 217
-365 371 -351 303 -554 554 -711 879 -194 402 -269 817 -257 1412 6 270 17
399 53 627 l17 108 196 64 c868 286 2232 648 4051 1076 1443 339 2375 511
2865 528 l50 2 89 -217z m4971 -10413 c378 -44 661 -188 979 -499 204 -200
379 -420 601 -756 177 -268 248 -405 386 -743 95 -233 149 -305 298 -391 108
-63 130 -64 217 -3 93 66 174 149 281 285 48 62 110 138 138 171 182 212 438
307 830 308 171 0 275 -13 390 -49 149 -47 271 -121 379 -228 67 -67 181 -228
192 -271 16 -65 -108 -127 -366 -184 -235 -52 -295 -70 -400 -120 -193 -94
-316 -224 -430 -455 -81 -166 -125 -294 -230 -670 -98 -353 -114 -428 -114
-540 0 -115 10 -140 151 -376 280 -467 542 -1071 853 -1964 299 -857 596
-1917 729 -2595 109 -561 158 -1202 98 -1284 -11 -14 -69 8 -490 189 -263 113
-481 205 -484 205 -13 0 10 -197 46 -410 159 -917 179 -1058 188 -1310 7 -190
-10 -457 -35 -557 l-17 -68 -36 1 c-51 1 -142 46 -226 110 -77 59 -153 140
-297 317 l-89 109 -81 -79 c-44 -43 -171 -166 -281 -274 -599 -584 -1173 -958
-1775 -1156 -500 -164 -1019 -225 -2440 -288 -1196 -52 -2863 -54 -4265 -5
-1167 41 -2394 135 -2833 216 -539 99 -989 286 -1422 590 -323 226 -522 395
-825 698 -137 138 -265 262 -282 274 l-33 23 -50 -47 c-28 -27 -90 -106 -138
-178 -48 -71 -115 -157 -150 -192 -58 -57 -180 -134 -215 -134 -20 0 -71 134
-99 260 -20 95 -22 131 -23 385 0 351 20 523 126 1107 54 298 79 463 79 521 0
58 23 61 -220 -28 -231 -84 -699 -251 -727 -260 -41 -12 -47 27 -47 275 0 176
5 262 23 395 77 579 270 1380 556 2305 134 435 454 1375 615 1805 161 433 373
869 548 1130 63 93 121 187 128 209 33 93 8 230 -127 701 -139 482 -301 750
-582 964 -106 81 -165 110 -294 145 -51 15 -135 37 -185 51 -94 26 -388 161
-388 178 0 5 12 32 26 61 91 182 306 345 565 429 134 44 251 61 419 61 276 0
496 -61 700 -195 113 -74 201 -156 353 -326 70 -78 136 -145 147 -148 27 -8
162 37 600 200 385 144 689 246 870 294 140 37 453 109 1455 336 424 96 946
215 1160 265 215 50 732 168 1150 261 1620 362 1767 398 2765 669 742 202 971
255 1225 279 130 12 326 12 430 1z"/>
<path d="M6025 11884 c-117 -18 -264 -50 -344 -76 -470 -150 -777 -441 -883
-836 -25 -95 -36 -333 -19 -438 82 -533 513 -955 1024 -1003 293 -28 590 61
884 266 177 122 284 243 376 420 106 206 152 406 144 628 -10 283 -103 512
-285 705 -205 219 -443 327 -737 335 -71 2 -143 1 -160 -1z m106 -620 c184
-54 309 -211 349 -441 51 -287 -199 -550 -541 -570 -222 -13 -353 65 -455 272
-80 164 -83 292 -8 444 67 136 223 257 381 295 80 20 207 20 274 0z"/>
<path d="M12995 11875 c-354 -50 -607 -158 -794 -339 -133 -128 -219 -278
-263 -452 -29 -118 -32 -348 -5 -471 102 -475 441 -873 867 -1018 247 -84 549
-80 802 11 364 131 629 413 725 772 24 86 27 116 27 272 1 135 -3 194 -18 260
-107 490 -446 850 -895 951 -116 26 -318 32 -446 14z m319 -601 c241 -59 433
-297 413 -514 -13 -143 -170 -342 -335 -425 -206 -103 -521 -15 -652 182 -50
77 -74 170 -67 267 26 370 293 574 641 490z"/>
<path d="M9200 9244 c-25 -2 -110 -9 -190 -14 -169 -13 -447 -49 -621 -81
l-122 -23 6 -71 c6 -85 54 -217 115 -321 74 -127 158 -230 346 -423 209 -216
295 -324 366 -462 115 -223 151 -475 170 -1194 10 -347 6 -1073 -7 -1320 l-6
-120 -86 -43 c-86 -43 -162 -100 -422 -320 -485 -409 -834 -518 -1659 -516
-222 0 -345 5 -453 18 -401 46 -693 127 -964 265 -573 292 -934 748 -1129
1424 -64 223 -114 506 -145 827 -6 63 -14 374 -18 690 -5 479 -9 580 -21 605
-23 45 -242 155 -310 155 -48 0 -203 -42 -227 -62 -33 -26 -116 -253 -156
-423 -52 -221 -62 -324 -62 -660 1 -265 4 -335 24 -480 105 -786 370 -1485
726 -1915 256 -310 605 -572 1050 -790 444 -217 835 -327 1555 -438 44 -7 46
-9 68 -66 32 -81 64 -224 117 -536 70 -407 98 -504 191 -665 59 -101 199 -242
307 -309 240 -149 602 -242 1127 -291 418 -38 1478 -44 1790 -10 361 39 637
126 825 260 78 55 188 171 246 260 165 249 276 601 353 1121 14 95 28 178 31
187 4 9 27 17 68 21 104 12 395 63 534 95 843 192 1613 586 2062 1057 457 478
744 1227 812 2114 17 228 7 696 -20 872 -24 165 -63 341 -95 435 -25 73 -64
161 -75 167 -3 2 -122 7 -263 11 l-257 7 -10 -40 c-30 -109 -33 -211 -32 -905
2 -746 -1 -819 -44 -1031 -138 -676 -531 -1264 -1070 -1601 -617 -386 -1488
-488 -2340 -274 -678 171 -1214 495 -1393 842 l-27 52 -3 725 c-3 738 5 1046
34 1270 45 346 131 589 279 785 33 44 147 169 253 278 198 204 292 319 342
417 41 81 69 174 76 251 8 78 31 67 -206 103 -414 64 -674 86 -1070 90 -179 2
-345 2 -370 0z m1345 -5359 c160 -59 361 -134 447 -167 l157 -60 8 -57 c4 -31
8 -153 7 -271 0 -193 -3 -228 -27 -341 -44 -207 -105 -362 -193 -486 -124
-175 -304 -258 -612 -284 -131 -11 -377 -7 -391 6 -8 9 -4 1614 4 1762 l7 112
151 -53 c84 -30 283 -102 442 -161z m-1359 -742 c-4 -504 -9 -920 -12 -923 -3
-3 -83 -4 -177 -4 -257 2 -480 45 -647 126 -167 81 -288 237 -339 440 -45 174
-51 411 -16 550 32 123 80 204 185 308 141 141 283 215 597 311 169 52 376
108 402 109 12 0 13 -130 7 -917z"/>
</g>
</svg>
